<svg xmlns="http://www.w3.org/2000/svg" width="32" height="32" viewBox="0 0 32 32">
  <defs>
    <linearGradient id="announcekit-a" x1="-4.112%" x2="95.354%" y1="106.833%" y2="3.606%">
      <stop offset="0%" stop-color="#15BAF9"/>
      <stop offset="100%" stop-color="#1853F9"/>
    </linearGradient>
  </defs>
  <path fill="url(#announcekit-a)" d="M16.6182192,15.0588235 L20.0851693,15.0588235 C20.9445882,15.0588235 21.644565,15.692426 21.644565,16.4708249 C21.644565,17.2492237 20.9445882,17.882353 20.0851693,17.882353 L16.6182192,17.882353 C15.7582776,17.882353 15.0588235,17.2492237 15.0588235,16.4708249 C15.0588235,15.692426 15.7582776,15.0588235 16.6182192,15.0588235 Z M12.396777,12.0247514 L14.8482809,9.57324754 C15.4559818,8.96554659 16.3989647,8.91861284 16.9493758,9.46902391 C17.4997869,10.019435 17.4525185,10.9620834 16.8448176,11.5697843 L14.3933137,14.0212882 C13.7852431,14.6293588 12.8429644,14.6762575 12.2925533,14.1258464 C11.7421422,13.5754353 11.7887064,12.6328219 12.396777,12.0247514 Z M14.3933137,18.9850123 L16.8448176,21.4365162 C17.4525185,22.0442171 17.4994523,22.9872 16.9490412,23.5376111 C16.3986301,24.0880222 15.4559818,24.0407538 14.8482809,23.4330529 L12.396777,20.981549 C11.7887064,20.3734784 11.7418076,19.4311997 12.2922187,18.8807886 C12.8426298,18.3303775 13.7852431,18.3769417 14.3933137,18.9850123 L14.3933137,18.9850123 Z M15.9222506,-1.42108547e-14 L16.035167,-1.42108547e-14 C17.2714964,0.00471135059 18.5151445,0.153904038 19.7472919,0.450195492 C23.9021953,1.45109523 27.4188076,4.01249816 29.6494283,7.66222252 C31.223984,10.2340952 32.0368772,13.1928218 31.9987156,16.2169837 C31.8680254,24.9204142 24.510689,32 15.5991844,32 L1.89343987,32 C1.26142198,32 0.745979765,31.4843692 0.745979765,30.8509546 C0.745979765,30.6499371 0.801392415,30.4483961 0.904899069,30.2693648 L2.35608324,27.8089941 C2.99594254,26.7510348 2.99594254,25.4418034 2.35817429,24.3880319 C0.810802109,21.855944 0.0109779765,19.0097662 0,16.1143811 L0,15.9924095 C0.00470484706,14.7554188 0.153691699,13.5100525 0.449574353,12.2772498 C1.4496159,8.11660587 4.00696207,4.59565837 7.65269638,2.36195587 C10.1833818,0.810875361 13.0287691,0.00994618354 15.9222506,-1.42108547e-14 Z M4.32950553,28.9983478 L3.90450094,29.7081909 L15.5991844,29.7081909 C23.2701773,29.7081909 29.5976749,23.6431154 29.7043181,16.1876687 C29.757117,12.3364034 28.1804702,8.61339136 25.3784719,5.97241899 C22.5722916,3.3162656 18.7535235,1.97981319 14.9023441,2.30594317 C11.2492912,2.59490586 7.93080516,4.2904677 5.55537977,7.0795858 C3.1809999,9.86818043 2.0319715,13.4158255 2.32158103,17.0707848 C2.49147831,19.2275353 3.18518198,21.3481654 4.32741449,23.2033896 C5.4027336,24.9926549 5.4027336,27.2122234 4.32950553,28.9983478 L4.32950553,28.9983478 Z"/>
</svg>
