<svg xmlns="http://www.w3.org/2000/svg" width="32" height="32" viewBox="0 0 32 32">
  <g fill="none">
    <path fill="#2196F3" d="M15.9703704,0.00311890838 C7.34003899,-0.167048733 0.198612086,6.67683431 0.00155945419,15.3065419 C0.0240779727,19.6993996 1.96921637,23.8621442 5.32447563,26.6976062 L5.32447563,31.2753528 C5.32447563,31.6428226 5.62239376,31.9407407 5.98986355,31.9407407 C6.1145575,31.9407407 6.23675634,31.9056842 6.34248733,31.8396257 L10.0512437,29.5228382 C11.9408031,30.2455517 13.9473216,30.6140819 15.9703704,30.6100273 C24.6007018,30.7801949 31.7421287,23.9363119 31.9391813,15.3066043 C31.7421287,6.67683431 24.6007018,-0.167048733 15.9703704,0.00311890838 Z"/>
    <path fill="#FAFAFA" d="M26.4831501,10.9151189 C26.2851618,10.6497622 25.9221832,10.5703548 25.631501,10.7287953 L18.7117037,14.5014269 L14.4067992,10.8099493 C14.1428148,10.5836413 13.7490838,10.5986745 13.5032515,10.8445692 L5.518846,18.8289747 C5.25978947,19.0895906 5.26103704,19.5108928 5.5217154,19.7699493 C5.73012086,19.9771072 6.04968421,20.0230175 6.3079922,19.8829162 L13.2277895,16.1102846 L17.5366862,19.8030721 C17.8006706,20.0293801 18.1944016,20.014347 18.4402339,19.7684522 L26.4246394,11.7840468 C26.6573099,11.549193 26.6822612,11.1791033 26.4831501,10.9151189 Z"/>
  </g>
</svg>
