<svg xmlns="http://www.w3.org/2000/svg" width="32" height="32" viewBox="0 0 32 32">
  <g fill="none">
    <path fill="#4CAF50" d="M16.004,0 L15.996,0 L15.996,0 C7.174,0 0,7.176 0,16 C0,19.5 1.128,22.744 3.046,25.378 L1.052,31.322 L7.202,29.356 C9.732,31.032 12.75,32 16.004,32 C24.826,32 32,24.822 32,16 C32,7.178 24.826,0 16.004,0 Z"/>
    <path fill="#FAFAFA" d="M25.314,22.594 C24.928,23.684 23.396,24.588 22.174,24.852 C21.338,25.03 20.246,25.172 16.57,23.648 C11.868,21.7 8.84,16.922 8.604,16.612 C8.378,16.302 6.704,14.082 6.704,11.786 C6.704,9.49 7.87,8.372 8.34,7.892 C8.726,7.498 9.364,7.318 9.976,7.318 C10.174,7.318 10.352,7.328 10.512,7.336 C10.982,7.356 11.218,7.384 11.528,8.126 C11.914,9.056 12.854,11.352 12.966,11.588 C13.08,11.824 13.194,12.144 13.034,12.454 C12.884,12.774 12.752,12.916 12.516,13.188 C12.28,13.46 12.056,13.668 11.82,13.96 C11.604,14.214 11.36,14.486 11.632,14.956 C11.904,15.416 12.844,16.95 14.228,18.182 C16.014,19.772 17.462,20.28 17.98,20.496 C18.366,20.656 18.826,20.618 19.108,20.318 C19.466,19.932 19.908,19.292 20.358,18.662 C20.678,18.21 21.082,18.154 21.506,18.314 C21.938,18.464 24.224,19.594 24.694,19.828 C25.164,20.064 25.474,20.176 25.588,20.374 C25.7,20.572 25.7,21.502 25.314,22.594 Z"/>
  </g>
</svg>
